# xmcd
#
# Track frame offsets: 
#        150
#        21552
#        33141
#        64971
#        82069
#        98675
#        119133
#        146223
#        166059
#        179929
#        201291
#        234393
#
# Disc length: 3533 seconds
#
# Revision: 0
# Processed by: cddbd v1.5.1PL0 Copyright (c) Steve Scherf et al.
# Submitted via: ExactAudioCopy v0.95a3
#
DISCID=b30dcb0c
DTITLE=Prince - The Sign [CD2]
DYEAR=1900
DGENRE=
TTITLE0=Let's Go Crazy
TTITLE1=When Doves Cry
TTITLE2=Purple Rain
TTITLE3=1999
TTITLE4=U Got The Look
TTITLE5=Kiss
TTITLE6=It's Gonna Be A Beautiful Night
TTITLE7=The Ballad Of Dorothy Parker
TTITLE8=Starfish And Coffee
TTITLE9=Now's The Time
TTITLE10=Strange Relationship
TTITLE11=Forever In My Life
EXTD=
EXTT0=
EXTT1=
EXTT2=
EXTT3=
EXTT4=
EXTT5=
EXTT6=
EXTT7=
EXTT8=
EXTT9=
EXTT10=
EXTT11=
PLAYORDER=
